<svg width="15" height="15" viewBox="0 0 15 15" fill="none" xmlns="http://www.w3.org/2000/svg">
<path fill-rule="evenodd" clip-rule="evenodd" d="M0 7.5C0 5.51088 0.790176 3.60322 2.1967 2.1967C3.60322 0.790176 5.51088 0 7.5 0C9.48912 0 11.3968 0.790176 12.8033 2.1967C14.2098 3.60322 15 5.51088 15 7.5C15 9.48912 14.2098 11.3968 12.8033 12.8033C11.3968 14.2098 9.48912 15 7.5 15C5.51088 15 3.60322 14.2098 2.1967 12.8033C0.790176 11.3968 0 9.48912 0 7.5H0ZM8.146 4.146C8.19245 4.09944 8.24762 4.06249 8.30837 4.03729C8.36911 4.01208 8.43423 3.99911 8.5 3.99911C8.56577 3.99911 8.63089 4.01208 8.69163 4.03729C8.75238 4.06249 8.80755 4.09944 8.854 4.146L10.854 6.146C10.9006 6.19245 10.9375 6.24762 10.9627 6.30837C10.9879 6.36911 11.0009 6.43423 11.0009 6.5C11.0009 6.56577 10.9879 6.63089 10.9627 6.69163C10.9375 6.75238 10.9006 6.80755 10.854 6.854L6.707 11H4.5C4.36739 11 4.24021 10.9473 4.14645 10.8536C4.05268 10.7598 4 10.6326 4 10.5V8.293L8.146 4.146Z" fill="white" fill-opacity="0.68"/>
</svg>
